<svg width="20" height="20" viewBox="0 0 20 20" fill="none" xmlns="http://www.w3.org/2000/svg">
<path d="M18.0408 4.032C18.2605 3.8124 18.5696 3.5736 18.8853 3.2856L19.1768 3.0412L18.382 2.1492L18.1224 2.392C17.024 3.39 16.3632 3.9932 16.0405 5.2296C15.72 6.4588 15.7072 7.7032 15.7408 8.8664C15.776 10.0656 15.8212 10.8568 16.1564 11.7392L16.2828 12.0644C16.6044 12.8736 17.0912 14.096 17.0912 15.6684C17.0912 17.568 16.3216 18.5316 14.804 18.5316C13.4232 18.5316 12.6784 17.61 12.5912 15.7892C12.5516 14.9824 12.778 13.9864 13.016 12.934C13.2172 12.0456 13.4244 11.1264 13.5265 10.1508C13.6392 9.0752 13.498 8.3064 13.0848 7.8448C12.5545 7.2524 11.738 7.2 11.0188 7.2H10.8V1.6556C10.8 1.1756 10.4516 0.800003 9.97445 0.800003H1.71805C1.24165 0.800003 0.800049 1.1756 0.800049 1.6556V19.2H10.8V8.4H11.0192C11.5112 8.4 12.0208 8.4552 12.194 8.6484C12.2868 8.7524 12.4292 9.0892 12.3352 9.9976C12.2404 10.9032 12.0396 11.7988 11.846 12.652C11.5896 13.7876 11.3464 14.8676 11.3944 15.8412C11.5124 18.3128 12.756 19.7332 14.804 19.7332C16.9868 19.7332 18.29 18.214 18.29 15.666C18.29 13.8624 17.732 12.4572 17.3972 11.6152L17.2764 11.3084C17.0357 10.6728 16.9816 10.0836 16.9484 9.0556C17.3336 9.0468 17.8 9.0376 18.0096 9.0376C18.4892 9.0376 18.7304 8.7564 18.8333 8.2692C18.8932 7.9852 18.8004 7.6128 18.8004 6.9368V6.7576C18.8 4.9708 18.5268 4.4604 18.0408 4.032ZM9.60005 7.6H2.00005V2.4H9.60005V7.6ZM17.6 6.9384C17.6 7.2876 17.692 7.6216 17.6804 7.834C17.4412 7.8376 17.166 7.844 16.886 7.8504C16.8965 7.0788 16.982 6.2932 17.1793 5.5368C17.2328 5.3352 17.2168 5.1576 17.2976 4.992C17.5108 5.1972 17.6 5.5048 17.6 6.7584V6.9384Z" fill="#474554"/>
</svg>
