<svg width="24" height="24" viewBox="0 0 24 24" fill="none" xmlns="http://www.w3.org/2000/svg">
<path d="M18 2H7C5.897 2 5 2.897 5 4V7C5 8.103 5.897 9 7 9H18C19.103 9 20 8.103 20 7V4C20 2.897 19.103 2 18 2ZM7 7V4H18L18.002 7H7Z" fill="#474554"/>
<path d="M13 15V13C13 11.897 12.103 11 11 11H4V5C2.897 5 2 5.897 2 7V11C2 12.103 2.897 13 4 13H11V15C10.7348 15 10.4804 15.1054 10.2929 15.2929C10.1054 15.4804 10 15.7348 10 16V21C10 21.2652 10.1054 21.5196 10.2929 21.7071C10.4804 21.8946 10.7348 22 11 22H13C13.2652 22 13.5196 21.8946 13.7071 21.7071C13.8946 21.5196 14 21.2652 14 21V16C14 15.7348 13.8946 15.4804 13.7071 15.2929C13.5196 15.1054 13.2652 15 13 15Z" fill="#474554"/>
</svg>
